/* XPM */
static char *pixmap[] = {
/* width height ncols cpp */
"32 32 7 2",
  /* Colors */
  "00 c #000000",
  "01 c #808080",
  "02 c #C0C0C0",
  "03 c #FF0000",
  "04 c #0000FF",
  "05 c #00FFFF",
  "06 c #FFFFFF",
  "0606060606060606060600000000000000000000060606060606060606060606",
  "0606060606060606060002020202020202020200000606060606060606060606",
  "0606060606060606060002000000000000000002000606060606060606060606",
  "0606060606060606060002000604050605050002000606060604060606060606",
  "0606060606060606060002000605030406040002000606060404060606060606",
  "0603030303030303060002000506060506060002000606040404040404040606",
  "0603030303030303060002000000000000000002000606040404040404040606",
  "0603030606060606060002020202020202020202000006060404060604040606",
  "0603030606060606060600000000000000000000010000060604060604040606",
  "0603030606060606060002020202020202020202000100060606060604040606",
  "0603030606060606000000000000000000000000000100060606060604040606",
  "0603030606060606000202020202020202020202000100060606060604040606",
  "0603030606060606000201010101010101010101000006060606060604040606",
  "0603030606060606000000000000000000000000000606060606060604040606",
  "0603030606060606060606060606060606060606060606060606060604040606",
  "0603030606060606060606060606060606060606060606060606060604040606",
  "0603030606060606060606060606060606060606060606060606060604040606",
  "0603030606060606060606060606060606060606060606060606060604040606",
  "0603030606060606060600000000000000000000060606060606060604040606",
  "0603030606060606060002020202020202020202000606060606060604040606",
  "0603030606030606060002000000000000000002000606060606060604040606",
  "0603030606030306060002000604050605050002000606060606060604040606",
  "0603030303030303060002000605030404060002000606040404040404040606",
  "0603030303030303060002000506050606060002000606040404040404040606",
  "0606060606030306060002000000000000000002000606060606060606060606",
  "0606060606030606060002020202020202020202000006060606060606060606",
  "0606060606060606060600000000000000000000010000060606060606060606",
  "0606060606060606060002020202020202020202000100060606060606060606",
  "0606060606060606000000000000000000000000000100060606060606060606",
  "0606060606060606000202020202020202020202000100060606060606060606",
  "0606060606060606000201010101010101010101000006060606060606060606",
  "0606060606060606000000000000000000000000000606060606060606060606",
};
