/* XPM */
static char *pixmap[] = {
/* width height ncols cpp */
"16 16 6 2",
  /* Colors */
  "00 c #000000",
  "01 c #008000",
  "02 c #C0C0C0",
  "03 c #808080",
  "04 c #FFFFFF",
  ".. s None c None",
  "................................",
  "..............03030303030303....",
  "............030000000000000200..",
  "............030001040101010200..",
  "....03030303030303040101010200..",
  "..0300000000000002000101010200..",
  "..0300040101010102000101010200..",
  "..0300040101010102000303030200..",
  "..0300010101010102000202020200..",
  "..030001010101010200000000000000",
  "..030003030303030200020303020300",
  "..030202020202020200030303030300",
  "..0300000000000000000000000000..",
  "0304020202020303020300..........",
  "0303030303030303030300..........",
  "..000000000000000000............",
};
